<?xml version="1.0" encoding="UTF-8"?>
<svg width="50px" height="50px" viewBox="0 0 50 50" version="1.1" xmlns="http://www.w3.org/2000/svg" xmlns:xlink="http://www.w3.org/1999/xlink">
    <!-- Generator: Sketch Beta 39.1 (31721) - http://www.bohemiancoding.com/sketch -->
    <title>Group 28</title>
    <desc>Created with Sketch Beta.</desc>
    <defs></defs>
    <g id="1020" stroke="none" stroke-width="1" fill="none" fill-rule="evenodd">
        <g id="代码-copy" transform="translate(-1214.000000, -71.000000)">
            <g id="Group-28" transform="translate(1214.000000, 71.000000)">
                <path d="M39.4532465,16.6218468 C39.5848789,15.838717 39.6721896,15.0547541 39.6721896,14.2819549 C39.6723562,6.40700155 33.265188,0 25.3902346,0 L14.2821215,0 C6.40716817,0 0,6.40700155 0,14.2819549 C0,18.3483981 1.73055025,22.2028963 4.7605961,24.9165244 L4.7605961,33.8880262 L9.57367856,31.1807298 C10.1052071,38.5748081 16.2759367,44.4327857 23.8033137,44.4327857 L34.9115935,44.4327857 C34.9290889,44.4327857 34.9472509,44.4327857 34.9664126,44.4319525 L44.4329523,49.7567354 L44.4329523,40.7852336 C47.4631648,38.0716055 49.1935484,34.2171073 49.1935484,30.1506641 C49.193715,23.8644645 45.1057774,18.5253521 39.4532465,16.6218468 L39.4532465,16.6218468 L39.4532465,16.6218468 Z M6.34735038,31.1747313 L6.34735038,24.1892134 L6.06758976,23.9517752 C3.22066298,21.5302378 1.58708753,18.0056538 1.58708753,14.2821215 C1.58708753,7.28227407 7.28244069,1.58708753 14.2821215,1.58708753 L25.3904013,1.58708753 C32.3902487,1.58708753 38.0854353,7.28244069 38.0854353,14.2821215 C38.0854353,14.9136241 38.0354483,15.5556239 37.9354743,16.1982902 C36.9595612,15.9865119 35.9494904,15.8690424 34.9115935,15.8690424 L25.3902346,15.8690424 L23.8033137,15.8690424 L10.1409775,15.8690424 L10.1409775,17.4559634 L17.290673,17.4559634 C12.9133106,19.7108773 9.85693827,24.1565553 9.56251479,29.3378754 C9.56018206,29.3490391 6.34735038,31.1747313 6.34735038,31.1747313 Z M43.1261253,39.820651 L42.8460314,40.0579227 L42.8460314,47.0434405 L35.3551449,42.8295357 L35.1393676,42.8335346 C35.0877144,42.8352009 35.0362277,42.8383667 34.9115935,42.846198 L23.8033137,42.846198 C16.8034663,42.846198 11.1082797,37.1508448 11.1082797,30.151164 C11.1082797,23.1514831 16.8036329,17.45613 23.8033137,17.45613 L25.3902346,17.45613 L34.9115935,17.45613 C41.9114409,17.45613 47.6066275,23.1514831 47.6066275,30.151164 C47.6067941,33.8745297 45.973052,37.398947 43.1261253,39.820651 L43.1261253,39.820651 Z M29.7716224,7.34751701 L29.7716224,8.93443791 L10.2016227,8.93443791 L10.2016227,7.34751701 L29.7716224,7.34751701 Z M29.6712085,11.5229791 L29.6712085,13.1099 L10.1012088,13.1099 L10.1012088,11.5229791 L29.6712085,11.5229791 Z" id="chat" fill-opacity="0.3" fill="#6D77B8" transform="translate(24.596774, 24.878368) scale(-1, 1) translate(-24.596774, -24.878368) "></path>
                <path d="M9.926849,26.7358183 L11.2949044,26.7358183 L11.2949044,29.4093069 L13.664916,29.4093069 L13.664916,26.7358183 L15.0281543,26.7358183 L15.0281543,33.8217674 L13.664916,33.8217674 L13.664916,30.7147401 L11.2949044,30.7147401 L11.2949044,33.8217674 L9.926849,33.8217674 L9.926849,26.7358183 Z M19.9897639,26.5575857 C20.991725,26.5575857 21.8531738,26.92047 22.5741362,27.6462495 C23.2950986,28.3720291 23.6555744,29.2567603 23.6555744,30.3004698 C23.6555744,31.334545 23.2999157,32.2096422 22.5885875,32.9257874 C21.8772594,33.6419327 21.0142048,34 19.9993981,34 C18.9364201,34 18.0532945,33.6322986 17.3499949,32.8968849 C16.6466953,32.1614711 16.2950508,31.2879796 16.2950508,30.2763843 C16.2950508,29.598776 16.4588304,28.975771 16.7863946,28.4073508 C17.1139588,27.8389306 17.5643529,27.3885365 18.1375902,27.0561552 C18.7108276,26.7237739 19.3282126,26.5575857 19.9897639,26.5575857 L19.9897639,26.5575857 Z M19.9753126,27.8774702 C19.3201842,27.8774702 18.769435,28.1054771 18.3230484,28.5614979 C17.8766619,29.0175187 17.653472,29.5971702 17.653472,30.3004698 C17.653472,31.0840547 17.9344665,31.7038483 18.4964639,32.1598691 C18.9332162,32.516336 19.4341892,32.6945668 19.9993981,32.6945668 C20.6384694,32.6945668 21.1827959,32.4633485 21.6323938,32.0009049 C22.0819918,31.5384613 22.3067874,30.9684439 22.3067874,30.2908356 C22.3067874,29.6164387 22.0803861,29.0456184 21.6275767,28.5783577 C21.1747674,28.111097 20.6240182,27.8774702 19.9753126,27.8774702 L19.9753126,27.8774702 Z M24.2288089,26.7358183 L28.1451085,26.7358183 L28.1451085,28.0653369 L26.8541266,28.0653369 L26.8541266,33.8217674 L25.4860712,33.8217674 L25.4860712,28.0653369 L24.2288089,28.0653369 L24.2288089,26.7358183 Z M31.1772314,27.3105942 L30.7826148,31.5527222 L30.3485366,31.5527222 L29.9341892,27.3105942 C29.9210353,27.1724777 29.9785829,27.0360076 30.1068339,26.9011796 C30.235085,26.7663516 30.3863531,26.6989386 30.560643,26.6989386 C30.7349328,26.6989386 30.8845568,26.7630631 31.0095193,26.8913141 C31.1344819,27.0195652 31.1903853,27.1593238 31.1772314,27.3105942 Z M30.5853065,32.4011478 C30.7563079,32.4011478 30.899355,32.4586955 31.014452,32.5737926 C31.1295491,32.6888896 31.1870968,32.8352251 31.1870968,33.0128035 C31.1870968,33.1903818 31.1262607,33.3367173 31.0045866,33.4518144 C30.8829126,33.5669115 30.7332886,33.6244591 30.5557103,33.6244591 C30.3781319,33.6244591 30.2334407,33.563623 30.1216321,33.441949 C30.0098235,33.3202749 29.95392,33.1722952 29.95392,32.9980054 C29.95392,32.8237155 30.0147561,32.6806684 30.1364302,32.5688599 C30.2581042,32.4570513 30.4077282,32.4011478 30.5853065,32.4011478 Z" id="Combined-Shape" fill="#8A97EB"></path>
            </g>
        </g>
    </g>
</svg>